Coordinates
version=1
nRows=8
nColumns=33
inDegrees=yes

Units are S.I. units (second, meters, Newtons, ...)
Angles are in degrees.

endheader
time	ground_thorax_rot_x	ground_thorax_rot_y	ground_thorax_rot_z	ground_thorax_tx	ground_thorax_ty	ground_thorax_tz	clav_prot_r	clav_elev_r	scapula_abduction_r	scapula_elevation_r	scapula_upward_rot_r	scapula_winging_r	shoulder_elv_r	plane_of_elev_r	axial_rot_r	elbow_flexion_r	pro_sup_r	wrist_flex_r	wrist_dev_r	clav_prot_l	clav_elev_l	scapula_abduction_l	scapula_elevation_l	scapula_upward_rot_l	scapula_winging_l	shoulder_elv_l	plane_of_elev_l	axial_rot_l	elbow_flexion_l	pro_sup_l	wrist_flex_l	wrist_dev_l
      7.94000000	    -34.73839022	    -23.36162934	     29.02986140	   -133.32864399	    807.38964878	      5.73671085	      9.29049449	    -45.00000000	     39.83458168	    -45.00000000	    -45.00000000	  -2978.78788476	  -2806.20993244	     33.47723369	     44.27727331	    372.54151200	     23.09641200	     18.77768465	      9.52415434	     16.49279217	     39.12830917	    -38.94856044	    -45.00000000	    -42.59263033	    444.84442380	  -4057.76010072	    136.49432178	    179.99999979	    368.54060112	     18.08534695	      8.09099567	    -20.26532652
      7.95000000	    -35.12008730	    -22.66124519	     28.10643029	   -138.22432108	    809.77909415	      5.52146598	      9.23821313	    -45.00000000	     39.87811495	    -45.00000000	    -44.52138443	  -2979.06445729	  -2805.87753072	     33.55520431	     44.25144056	    372.63013780	     22.87170683	     18.85168351	      9.18975462	     16.46040948	     39.20787343	    -39.12538574	    -45.00000000	    -42.26883906	    445.17078873	  -4057.57845528	    136.50269590	    179.99999979	    368.64382668	     17.12173880	      8.02295942	    -20.36062181
      7.96000000	    -35.46787080	    -22.03395683	     27.25957441	   -143.18645028	    812.12425345	      5.33406772	      9.22229060	    -45.00000000	     39.94587436	    -45.00000000	    -44.03704811	  -2979.34925665	  -2805.61370261	     33.59314625	     44.26278013	    372.72658783	     22.76223823	     18.93359260	      8.90884711	     16.49166436	     39.21356195	    -39.23808477	    -45.00000000	    -41.97090997	    445.52710012	  -4057.38734949	    136.52111781	    179.99999979	    368.71495578	     16.27506873	      7.93251041	    -20.44818274
      7.97000000	    -35.77098143	    -21.42470812	     26.42427937	   -148.19657319	    814.40974645	      5.17319039	      9.19958372	    -45.00000000	     40.09887414	    -45.00000000	    -43.68753143	  -2979.60791471	  -2805.34668552	     33.64598147	     44.27422621	    372.78811987	     22.80085046	     19.00350031	      8.58951468	     16.37809998	     39.26761384	    -39.34994854	    -45.00000000	    -41.83876340	    445.79031818	  -4057.19251742	    136.58258323	    179.99999979	    368.74980610	     15.49000777	      7.88512125	    -20.56886397
      7.98000000	    -36.03825958	    -20.77665050	     25.63014770	   -153.25005886	    816.62686081	      5.03604768	      9.19943783	    -45.00000000	     40.14179572	    -45.00000000	    -43.35215211	  -2979.92856513	  -2805.07968833	     33.67811704	     44.26106456	    372.89800338	     23.02554450	     19.06165711	      8.21623785	     16.23755422	     39.32840400	    -39.38096421	    -45.00000000	    -41.57317044	    446.08840868	  -4057.09185922	    136.58308104	    179.99999979	    368.85444704	     14.73657241	      7.83151736	    -20.70852245
      7.99000000	    -36.30323248	    -20.15625957	     24.85895890	   -158.32811304	    818.76196715	      4.91972486	      9.14372103	    -45.00000000	     40.22500189	    -45.00000000	    -43.08456071	  -2980.15564735	  -2804.85125772	     33.67879735	     44.48478363	    372.92252431	     23.54440691	     19.11862851	      7.95018313	     16.27530911	     39.24519304	    -39.42704972	    -45.00000000	    -41.44295857	    446.36750178	  -4056.92138049	    136.56112375	    179.99999979	    368.83331924	     14.20342727	      7.74714038	    -20.79933656
      8.00000000	    -36.49081595	    -19.64318857	     24.31041218	   -163.41209591	    820.80376953	      4.82124661	      9.18783896	    -45.00000000	     40.18643912	    -45.00000000	    -43.14878192	  -2980.48265017	  -2804.58666989	     33.74087292	     44.46934446	    373.04169455	     24.31840560	     19.15321942	      7.56673929	     16.14767186	     39.22400805	    -39.50182846	    -45.00000000	    -41.62146776	    446.58830575	  -4056.75756782	    136.64150865	    179.99999979	    368.94256460	     13.72079588	      7.64824912	    -20.93387309
      8.01000000	    -36.70666555	    -19.08581601	     23.65032422	   -168.48831229	    822.74359764	      4.73769607	      9.16917332	    -45.00000000	     40.18579474	    -45.00000000	    -43.05035094	  -2980.74103497	  -2804.40195672	     33.74700685	     44.69177436	    373.13229569	     25.46188562	     19.17975567	      7.22334138	     16.08963512	     39.17622061	    -39.47804341	    -45.00000000	    -41.59150736	    446.83549398	  -4056.63081880	    136.63135956	    179.99999979	    368.96038482	     13.42356000	      7.56204764	    -21.04246350
